OpenSim_Sub06_CSStiffKnee_LCS.mot
version=1
nRows=58
nColumns=11
inDegrees=no
endheader
time	Bot_Shank	2nd_Bot_Shank	2nd_Top_Shank	Top_Shank	Bot_Thigh	Med_Thigh	Top_Thigh	BNOx	BNOy	BNOZ
0	10658.16031894	10780.28579687	10814.45996967	11233.01661149	13301.96148177	14251.83952068	15022.43581071	201.12055675	-72.21275429	131.48119264
0.01000000	10657.87620100	10781.49153633	10814.61488172	11232.98394920	13303.22123582	14251.47551478	15020.15287536	201.12048092	-72.20742863	131.50033678
0.02000000	10657.55960323	10782.67119077	10814.76190417	11232.96026266	13304.50910031	14251.53776910	15018.36724750	201.12035503	-72.20252940	131.51855356
0.03000000	10657.26150795	10783.78932770	10814.88935232	11232.95777855	13305.73551539	14251.99073889	15017.24341809	201.12019899	-72.19739667	131.53678329
0.04000000	10657.03289748	10784.81051466	10814.98554149	11232.98872356	13306.81092121	14252.79887936	15016.94587807	201.12003273	-72.19137052	131.55596627
0.05000000	10656.91743648	10785.70333602	10815.04069035	11233.06325289	13307.65531063	14253.92038162	15017.60634908	201.11987531	-72.18388738	131.57692298
0.06000000	10656.90470771	10786.46606317	10815.05908436	11233.17621233	13308.25927683	14255.26714097	15019.11436698	201.11973962	-72.17509602	131.59958841
0.07000000	10656.96005427	10787.11027333	10815.05131378	11233.31558595	13308.64505633	14256.73030283	15021.25091925	201.11963579	-72.16546442	131.62350064
0.08000000	10657.04870488	10787.64760649	10815.02799861	11233.46932541	13308.83503487	14258.20091474	15023.79648136	201.11957390	-72.15546211	131.64819589
0.09000000	10657.13588829	10788.08970263	10814.99975884	11233.62538243	13308.85159821	14259.57002423	15026.53152878	201.11956406	-72.14555858	131.67321039
0.10000000	10657.18683324	10788.44820173	10814.97721446	11233.77170867	13308.71713210	14260.72867883	15029.23653697	201.11961637	-72.13622336	131.69808035
0.11000000	10657.16676847	10788.73474377	10814.97098549	11233.89625582	13308.45402229	14261.56792608	15031.69198140	201.11974093	-72.12792593	131.72234200
0.12000000	10657.04092274	10788.96096874	10814.99169191	11233.98697559	13308.08465455	14261.97881351	15033.67833753	201.11994785	-72.12113583	131.74553155
0.13000000	10656.78082749	10789.13785908	10815.04836149	11234.03338266	13307.63120947	14261.86997872	15035.00341829	201.12024367	-72.11624431	131.76726192
0.14000000	10656.40459529	10789.27153776	10815.13825442	11234.03654345	13307.11435140	14261.28006082	15035.67707760	201.12060881	-72.11306442	131.78771277
0.15000000	10655.95121647	10789.36594967	10815.25335662	11234.00270187	13306.55406510	14260.30596600	15035.79972473	201.12101190	-72.11115006	131.80731782
0.16000000	10655.45977985	10789.42502943	10815.38562914	11233.93812624	13305.97033212	14259.04487528	15035.47219610	201.12142158	-72.11005388	131.82651196
0.17000000	10654.96937424	10789.45271168	10815.52703302	11233.84908490	13305.38313402	14257.59396971	15034.79532812	201.12180643	-72.10932857	131.84573011
0.18000000	10654.51908844	10789.45293104	10815.66952931	11233.74184617	13304.81245236	14256.05043029	15033.86995722	201.12213507	-72.10852677	131.86540717
0.19000000	10654.14801129	10789.42962215	10815.80507905	11233.62267839	13304.27826870	14254.51143808	15032.79691983	201.12237611	-72.10720117	131.88597804
0.20000000	10653.89523158	10789.38671962	10815.92564329	11233.49784989	13303.80056458	14253.07417409	15031.67705235	201.12249815	-72.10490442	131.90787763
0.21000000	10653.79983813	10789.32815809	10816.02318308	11233.37362899	13303.39932158	14251.83581935	15030.61119121	201.12246980	-72.10118919	131.93154085
0.22000000	10653.90091976	10789.25787218	10816.08965946	11233.25628404	13303.09452124	14250.89355490	15029.70017283	201.12225967	-72.09560814	131.95740258
0.23000000	10654.23756528	10789.17979652	10816.11703347	11233.15208335	13302.90614511	14250.34456176	15029.04483364	201.12183636	-72.08771395	131.98589775
0.24000000	10654.84886351	10789.09786574	10816.09726616	11233.06729526	13302.85417476	14250.28602097	15028.74601004	201.12116848	-72.07705928	132.01746125
0.25000000	10655.77390325	10789.01601447	10816.02231858	11233.00818811	13302.95859175	14250.81511355	15028.90453847	201.12022465	-72.06319680	132.05252799
0.26000000	10657.03542585	10788.93876908	10815.88691188	11232.97961429	13303.23151847	14252.00024356	15029.59696534	201.11900593	-72.04582528	132.09137959
0.27000000	10658.53535460	10788.87502936	10815.70616613	11232.97596172	13303.62699335	14253.69713526	15030.72031888	201.11775346	-72.02572333	132.13316481
0.28000000	10660.12146177	10788.83565529	10815.50434428	11232.98692804	13304.07302138	14255.66618918	15032.09116670	201.11681595	-72.00415357	132.17652464
0.29000000	10661.64126421	10788.83151608	10815.30575240	11233.00218881	13304.49748475	14257.66735624	15033.52569687	201.11654259	-71.98238088	132.22009769
0.30000000	10662.94227879	10788.87348094	10815.13469654	11233.01141956	13304.82826565	14259.46058732	15034.84009747	201.11728262	-71.96167014	132.26252257
0.31000000	10663.87202233	10788.97241909	10815.01548277	11233.00429583	13304.99324627	14260.80583333	15035.85055660	201.11938523	-71.94328625	132.30243789
0.32000000	10664.29957648	10789.13747215	10814.96918025	11232.97234530	13304.93077428	14261.48895158	15036.39595617	201.12314780	-71.92833613	132.33861327
0.33000000	10664.25340009	10789.36501389	10814.99293543	11232.92078400	13304.65654358	14261.48726400	15036.48289970	201.12848443	-71.91675936	132.37078675
0.34000000	10663.83338532	10789.64569545	10815.07317249	11232.86096313	13304.22091493	14260.86390751	15036.19316408	201.13513747	-71.90797228	132.39913037
0.35000000	10663.13976130	10789.97014097	10815.19626506	11232.80426284	13303.67441261	14259.68242382	15035.60888074	201.14284845	-71.90138876	132.42381824
0.36000000	10662.27275718	10790.32897461	10815.34858677	11232.76206327	13303.06756089	14258.00635465	15034.81218115	201.15135890	-71.89642268	132.44502445
0.37000000	10661.33260207	10790.71282052	10815.51651123	11232.74574456	13302.45088403	14255.89924170	15033.88519676	201.16041036	-71.89248792	132.46292312
0.38000000	10660.41952510	10791.11230285	10815.68641208	11232.76668686	13301.87490633	14253.42462670	15032.91005901	201.16974437	-71.88899836	132.47768832
0.39000000	10659.63375541	10791.51804575	10815.84466292	11232.83627030	13301.39015205	14250.64605135	15031.96889938	201.17910245	-71.88536787	132.48949418
0.40000000	10659.07552213	10791.92067338	10815.97763739	11232.96587504	13301.04714546	14247.62705736	15031.14384930	201.18822613	-71.88101033	132.49851479
0.41000000	10658.83089615	10792.31019458	10816.07337287	11233.16409338	13300.88985214	14244.43924083	15030.50619204	201.19688127	-71.87541350	132.50493717
0.42000000	10658.88131034	10792.67207067	10816.13220290	11233.41891369	13300.91376481	14241.21372468	15030.04703585	201.20501334	-71.86861108	132.50904383
0.43000000	10659.16129841	10792.98972477	10816.15997226	11233.70908963	13301.09265051	14238.10831197	15029.72155436	201.21264834	-71.86088150	132.51116010
0.44000000	10659.60517291	10793.24657039	10816.16255168	11234.01333129	13301.40017378	14235.28093158	15029.48475166	201.21981264	-71.85250435	132.51161150
0.45000000	10660.14724634	10793.42602102	10816.14581191	11234.31034876	13301.80999917	14232.88951243	15029.29163185	201.22653263	-71.84375919	132.51072354
0.46000000	10660.72183122	10793.51149017	10816.11562370	11234.57885214	13302.29579126	14231.09198340	15029.09719904	201.23283468	-71.83492561	132.50882175
0.47000000	10661.26324009	10793.48639134	10816.07785779	11234.79755151	13302.83121458	14230.04627340	15028.85645733	201.23874517	-71.82628319	132.50623163
0.48000000	10661.70578545	10793.33413804	10816.03838493	11234.94515697	13303.38993369	14229.91031131	15028.52441081	201.24429047	-71.81811149	132.50327872
0.49000000	10661.98377983	10793.03814376	10816.00307587	11235.00037861	13303.94561315	14230.84202604	15028.05606360	201.24949697	-71.81069011	132.50028854
0.50000000	10662.04415739	10792.58822142	10815.97692083	11234.94876063	13304.47381199	14232.94414532	15027.42054169	201.25440563	-71.80423295	132.49755597
0.51000000	10661.90211987	10792.00879689	10815.96014740	11234.81281153	13304.96033612	14236.02082599	15026.66335332	201.25913634	-71.79859883	132.49521032
0.52000000	10661.59584424	10791.33594491	10815.95138036	11234.62747992	13305.39443994	14239.77574212	15025.85571281	201.26383556	-71.79352703	132.49332514
0.53000000	10661.16352475	10790.60574898	10815.94924326	11234.42772383	13305.76538048	14243.91249206	15025.06885389	201.26864976	-71.78875675	132.49197394
0.54000000	10660.64335564	10789.85429262	10815.95235968	11234.24850126	13306.06241477	14248.13467414	15024.37401027	201.27372540	-71.78402719	132.49123024
0.55000000	10660.07353118	10789.11765932	10815.95935317	11234.12477024	13306.27479983	14252.14588672	15023.84241566	201.27920897	-71.77907755	132.49116756
0.56000000	10659.49224563	10788.43193260	10815.96884730	11234.09148877	13306.39179269	14255.64972814	15023.54530378	201.28524692	-71.77364703	132.49185940
0.57000000	10658.93769324	10787.83319597	10815.97946562	11234.18361487	13306.40265036	14258.34979674	15023.55390835	201.29198574	-71.76747482	132.49337928
